<svg xmlns="http://www.w3.org/2000/svg" viewBox="0 0 128 128" role="img" aria-label="Distillery"><defs><filter id="shadow" x="-30%" y="-30%" width="160%" height="160%" color-interpolation-filters="sRGB"><feDropShadow dx="0" dy="7" stdDeviation="6" flood-color="#000000" flood-opacity="0.22" /></filter><linearGradient id="glass" x1="30" y1="20" x2="96" y2="112" gradientUnits="userSpaceOnUse"><stop offset="0" stop-color="#ffffff" stop-opacity="0.85" /><stop offset="0.55" stop-color="#e2e8f0" stop-opacity="0.45" /><stop offset="1" stop-color="#94a3b8" stop-opacity="0.35" /></linearGradient><linearGradient id="liquid" x1="34" y1="70" x2="94" y2="108" gradientUnits="userSpaceOnUse"><stop offset="0" stop-color="#a78bfa" /><stop offset="0.55" stop-color="#6366f1" /><stop offset="1" stop-color="#22d3ee" /></linearGradient><linearGradient id="cap" x1="50" y1="12" x2="78" y2="30" gradientUnits="userSpaceOnUse"><stop offset="0" stop-color="#334155" /><stop offset="1" stop-color="#0f172a" /></linearGradient></defs><g filter="url(#shadow)"><rect x="52" y="14" width="24" height="22" rx="10" fill="url(#cap)" stroke="#0f172a" stroke-width="4" /><path d="M58 30 V54 L32 94 C26 104 33 116 45 116 H83 C95 116 102 104 96 94 L70 54 V30 Z" fill="url(#glass)" stroke="#0f172a" stroke-width="4" stroke-linejoin="round" /><path d="M38 96 L54 68 H74 L90 96 C92 100 90 106 84 106 H44 C38 106 36 100 38 96 Z" fill="url(#liquid)" fill-opacity="0.92" /><path d="M48 42 V56 L38 78" fill="none" stroke="#ffffff" stroke-opacity="0.28" stroke-width="4" stroke-linecap="round" stroke-linejoin="round" /></g></svg>