<svg xmlns="http://www.w3.org/2000/svg" viewBox="0 0 128 128" role="img" aria-label="HP"><defs><filter id="shadow" x="-30%" y="-30%" width="160%" height="160%" color-interpolation-filters="sRGB"><feDropShadow dx="0" dy="7" stdDeviation="6" flood-color="#000000" flood-opacity="0.22" /></filter><linearGradient id="gFill" x1="28" y1="18" x2="102" y2="118" gradientUnits="userSpaceOnUse"><stop offset="0" stop-color="#ff5a66" /><stop offset="0.45" stop-color="#ff1f3a" /><stop offset="1" stop-color="#b4001f" /></linearGradient><linearGradient id="gStroke" x1="20" y1="12" x2="108" y2="116" gradientUnits="userSpaceOnUse"><stop offset="0" stop-color="#2a0b12" /><stop offset="1" stop-color="#14060a" /></linearGradient><linearGradient id="gHi" x1="30" y1="28" x2="74" y2="74" gradientUnits="userSpaceOnUse"><stop offset="0" stop-color="#ffffff" stop-opacity="0.55" /><stop offset="1" stop-color="#ffffff" stop-opacity="0" /></linearGradient></defs><g filter="url(#shadow)"><path d="M64 112 C64 112 26 88 26 54 C26 36 38.5 24 55 24 C63.5 24 70.5 28.2 74.5 35.2 C78.5 28.2 85.5 24 94 24 C110.5 24 123 36 123 54 C123 88 64 112 64 112 Z" fill="url(#gFill)" stroke="url(#gStroke)" stroke-width="6" stroke-linejoin="round" /><path d="M64 112 C64 112 26 88 26 54 C26 36 38.5 24 55 24 C63.5 24 70.5 28.2 74.5 35.2 C78.5 28.2 85.5 24 94 24 C110.5 24 123 36 123 54 C123 88 64 112 64 112 Z" fill="none" stroke="#ffffff" stroke-opacity="0.14" stroke-width="2" stroke-linejoin="round" /><path d="M46 43 C50 32 64 28 74 34 C65 34 58 38 55 45 C53 49 49 50 46 48 Z" fill="url(#gHi)" /></g></svg>